<svg width="215" height="326" viewBox="0 0 215 326" fill="none" xmlns="http://www.w3.org/2000/svg">
<g clip-path="url(#clip0_1_324)">
<path d="M120.467 302.979C121.742 299.637 123.734 296.616 126.304 294.13C128.873 291.644 131.956 289.753 135.337 288.59C137.587 287.812 139.726 286.626 141.905 285.641C139.909 284.708 137.746 284.185 135.545 284.104C130.339 283.918 125.411 281.696 121.819 277.914C121.118 276.855 120.648 275.66 120.441 274.407C120.234 273.154 120.295 271.872 120.618 270.645C121.271 268.258 124.095 269.332 125.89 270.082C131.711 272.401 138.098 274.072 143.101 277.633C149.656 282.381 156.806 282.371 164.041 283.279C152.518 278.245 142.849 269.733 136.391 258.934C134.93 256.403 133.318 256.441 131.024 257.443C125.564 259.78 119.399 259.864 113.871 257.677C108.342 255.491 103.896 251.209 101.499 245.764C100.966 244.584 100.734 242.51 101.412 241.796C101.998 241.415 102.657 241.161 103.346 241.049C104.036 240.936 104.742 240.969 105.419 241.145C109.161 241.837 112.855 242.83 116.561 243.716L117.248 243.791L116.639 243.423C116.025 242.635 115.35 241.897 114.621 241.214C109.76 236.88 106.28 231.211 104.616 224.914C104.427 223.469 104.494 222.003 104.814 220.582C106.015 220.732 107.395 220.506 108.377 221.006C115.19 224.205 121.18 228.929 125.882 234.812C124.895 230.633 124.223 226.386 123.87 222.107C123.798 215.713 121.756 209.494 118.022 204.3C116.002 200.682 114.169 196.963 112.53 193.158C112.025 192.283 110.513 191.122 109.774 191.301C95.4354 194.816 84.1385 186.53 71.9782 181.594C69.3997 180.602 69.4771 178.077 72.0751 176.701C74.2272 175.507 76.5963 174.754 79.0437 174.488C88.6173 173.891 98.1641 176.07 106.539 180.765C104.844 175.642 102.952 171.078 101.828 166.344C100.337 159.987 99.8483 153.522 102.964 147.382C104.416 144.534 106.61 143.789 108.414 145.798C110.71 148.186 112.637 150.902 114.132 153.858C116.087 158.106 117.168 162.702 117.313 167.374C117.458 172.046 116.664 176.698 114.976 181.054C114.173 183.042 113.903 185.208 114.195 187.334C115.727 194.006 118.622 200.291 122.697 205.793C123.901 198.871 124.906 192.462 126.235 186.187C128.761 174.802 132.979 163.863 138.749 153.735C139.491 152.643 139.878 151.35 139.86 150.029C139.842 148.709 139.418 147.425 138.647 146.352C136.568 143.137 134.813 139.71 132.789 136.463C127.915 128.536 122.587 121.194 112.062 120.722C111.728 120.687 111.402 120.599 111.095 120.462C104.56 118.343 99.0551 113.845 95.6723 107.859C94.1685 105.255 95.2922 103.341 98.2474 103.098C99.2378 103.129 100.221 103.277 101.177 103.54C108.972 105.117 116.385 107.535 121.977 112.889C122.297 108.623 122.884 104.383 123.734 100.191C124.169 98.501 126.569 97.3388 128.089 95.9402C129.514 97.1349 130.71 98.5802 131.616 100.205C133.976 107.723 134.235 115.163 129.761 122.212C129.462 122.849 129.317 123.547 129.336 124.251C129.356 124.955 129.539 125.644 129.873 126.265C133.684 132.523 137.708 138.634 141.75 144.735C141.932 145.051 143.616 144.922 143.708 144.695C145.809 138.769 148.762 132.947 149.573 126.847C151.039 115.533 145.113 106.899 137.028 99.5853C125.464 89.1209 103.831 82.6595 88.8018 93.6432C87.0843 94.8061 85.7414 96.4431 84.9358 98.3559C83.4823 102.045 81.4373 105.471 78.8814 108.499C74.1659 113.334 69.1985 117.916 64 122.226C62.8875 123.216 60.7488 124.401 59.847 123.954C59.1142 123.479 58.4852 122.86 57.9984 122.135C57.5115 121.41 57.177 120.593 57.0149 119.735C56.5917 117.018 56.7726 114.243 57.5445 111.606C58.3164 108.969 59.6605 106.536 61.4808 104.481C65.208 99.6994 70.5613 97.4769 75.8765 95.1027L76.1179 94.9633L75.8765 95.1027L69.9134 95.1967C66.0065 95.3166 62.1251 94.5129 58.584 92.8508C55.0429 91.1887 51.9419 88.715 49.5327 85.6305C45.9434 81.1293 47.3754 78.1196 53.0445 77.7737C57.21 77.4249 61.4008 77.4987 65.5528 77.9937C73.6701 79.1862 81.13 81.8993 84.7713 90.265C85.6226 92.2541 86.7067 91.4297 87.866 90.7356C100.236 83.296 112.976 83.5312 125.972 88.9272C128.308 89.8854 130.628 90.9022 132.938 91.9004C132.557 91.2405 132.09 90.6341 131.55 90.0971C122.558 82.8858 113.755 75.1438 101.897 72.6628C92.8342 70.776 86.96 64.4188 81.8513 57.3716C80.8971 56.062 81.4434 53.6629 81.2899 51.7671C82.8614 51.6295 84.4442 51.6908 86.001 51.9494C95.3603 54.6191 104.028 59.299 111.401 65.6627C111.238 63.6231 111.032 61.8074 110.94 59.9753C110.484 54.6162 112.054 49.284 115.338 45.033C118.505 40.9968 122.267 41.2067 123.559 45.7191C125.163 51.2644 126.164 56.9661 126.543 62.7248C126.737 64.9887 126.367 67.2647 125.465 69.3484C124.563 71.432 123.158 73.2581 121.376 74.6628C118.757 76.6461 119.487 77.2667 121.668 78.5131C123.717 79.6051 125.635 80.9277 127.386 82.4551C131.417 86.0819 135.233 89.9417 138.814 94.0148C141.458 97.4987 143.885 101.143 146.08 104.927C146.656 102.332 146.927 99.6775 146.887 97.0185C147.697 86.9264 152.09 83.2985 158.779 81.0737C162.483 79.8535 163.729 81.0687 163.44 84.8572C162.479 94.5158 159.979 103.525 151.957 109.917C150.757 110.883 150.337 111.399 151.042 113.05C152.631 116.551 153.481 120.341 153.539 124.183C153.597 128.026 152.862 131.837 151.379 135.379C148.181 143.179 144.453 150.789 140.695 158.391C136.627 166.05 133.685 174.257 131.958 182.759C134.737 181.362 137.316 179.598 139.626 177.513C145.743 171.724 151.387 165.415 157.804 159.974C159.602 158.684 160.956 156.868 161.681 154.775C162.405 152.682 162.465 150.415 161.851 148.285C160.822 143.265 160.271 138.16 160.205 133.038C160.254 130.202 160.864 127.404 161.999 124.807C163.135 122.21 164.774 119.864 166.821 117.906C169.5 115.169 171.85 115.722 173.185 119.193C173.503 120.135 173.738 121.103 173.89 122.085C175.627 131.346 174.645 140.909 171.063 149.615L176.132 147.929C182.106 145.967 188.123 144.851 193.998 147.908C194.835 148.292 195.579 148.851 196.182 149.547C196.784 150.243 197.231 151.06 197.492 151.943C197.3 152.871 196.905 153.745 196.336 154.502C195.768 155.259 195.039 155.881 194.202 156.323C190.29 158.517 185.981 159.91 181.524 160.422C177.067 160.935 172.551 160.555 168.24 159.307C166.933 158.82 165.51 158.741 164.158 159.079C162.806 159.416 161.589 160.156 160.665 161.199C154.849 167.038 149.033 172.876 143.065 178.579C139.974 181.505 137.045 184.709 132.414 185.522C131.765 185.788 131.191 186.21 130.743 186.75C130.295 187.29 129.986 187.931 129.843 188.619C128.904 197.843 127.382 207.131 127.672 216.34C128.016 233.056 133.672 249.237 143.818 262.534C147.382 267.248 155.341 273.915 159.633 275.257C158.775 272.999 157.78 270.547 156.908 268.049C155.872 264.254 153.447 260.987 150.114 258.899C145.789 256.313 142.434 252.373 140.572 247.689C138.833 243.434 138.057 239.045 140.235 234.711C142.301 230.74 145.162 230.378 147.035 234.308C149.294 239.089 151.249 244.009 152.889 249.036C153.937 252.053 154.449 255.255 155.205 258.366L156.282 258.215C156.214 256.468 156.224 254.727 156.089 252.993C155.389 243.674 160.159 239.283 167.171 235.259C168.88 234.272 170.864 234.02 170.747 237.163C170.655 246.568 169.24 255.397 160.801 261.411C160.269 261.844 159.843 262.392 159.555 263.014C159.266 263.636 159.123 264.316 159.135 265.002C160.818 274.994 166.37 280.322 176.307 281.878C177.947 282.152 179.608 282.273 181.269 282.238C208.44 281.434 227.692 268.285 239.403 244.135C243.701 235.795 245.251 226.304 243.831 217.021C243.031 212.248 240.909 208.314 236.41 206.57C230.416 204.251 224.148 202.487 217.968 200.747C216.862 200.418 215.22 201.391 214.042 202.096C208.563 205.259 203.417 208.999 197.857 211.936C192.298 214.873 186.141 216.046 180.356 212.118C178.602 210.923 175.725 209.458 176.874 206.687C178.023 205.025 179.712 203.813 181.654 203.257C188.142 200.727 194.714 198.471 201.054 196.199C198.088 193.422 195.359 191.053 192.916 188.495C192.607 188.037 192.411 187.512 192.344 186.964C192.278 186.416 192.342 185.86 192.533 185.343C192.833 184.747 194.486 184.438 195.44 184.631C203.804 186.252 212.092 188.04 217.261 195.921C217.867 196.72 218.715 197.301 219.678 197.576C226.142 199.55 232.637 201.406 239.273 203.379C234.345 196.302 229.009 189.461 221.602 184.782C216.415 181.501 211.013 178.493 204.688 178.002C192.902 177.018 182.479 180.753 172.888 187.258C172.552 187.562 172.282 187.93 172.094 188.342C171.905 188.753 171.803 189.199 171.793 189.652C171.724 196.265 168.32 201.306 164.281 206.02C160.242 210.733 156.432 214.942 152.38 219.29C151.307 220.18 150.121 220.923 148.852 221.501C147.998 220.196 147.368 218.757 146.989 217.243C146.481 209.185 149.146 201.253 154.413 195.147C154.844 194.65 155.337 194.216 155.738 193.711C156.14 193.207 156.237 192.903 156.071 193.172C151.716 193.007 147.286 193.01 142.887 192.598C142.289 192.422 141.741 192.108 141.288 191.68C140.834 191.252 140.488 190.723 140.277 190.136C140.053 189.447 141.078 187.962 141.948 187.41C145.004 185.112 148.328 183.193 151.847 181.695C157.337 179.84 163.101 178.67 168.31 183.104C168.77 183.337 169.274 183.465 169.788 183.481C170.302 183.497 170.813 183.4 171.286 183.197C174.042 182.052 176.685 180.626 179.395 179.358C189.391 174.754 199.689 172.603 210.651 175.378C209.821 174.369 209.02 173.368 208.171 172.37C205.717 169.761 203.886 166.629 202.818 163.211C201.749 159.793 201.471 156.177 202.004 152.638C202.486 149.655 203.922 148.926 205.847 150.716C213.63 157.308 218.828 166.447 220.513 176.506C220.614 177.661 220.984 178.778 221.593 179.766C222.202 180.754 223.034 181.586 224.021 182.195C233.114 188.852 240.612 196.777 244.684 207.648C247.555 215.375 248.502 223.683 247.442 231.853C249.794 226.278 251.937 220.725 253.706 215.04C254.766 211.6 256.732 207.414 255.608 204.565C254.655 202.015 250.209 200.662 247.212 198.945C238.829 194.16 234.478 187.097 235.01 177.339C235.126 174.965 234.765 171.552 237.78 171.2C239.336 171.021 241.65 173.356 242.926 175.051C246.943 180.421 250.647 186.022 254.693 191.872C254.12 188.204 254.796 184.451 256.611 181.217C258.426 177.983 261.276 175.454 264.702 174.038C265.944 173.445 268.194 172.667 268.668 173.187C269.555 174.429 269.974 175.945 269.85 177.465C269.186 186.952 265.334 195.378 261.312 203.852C259.069 208.545 257.496 213.497 255.605 218.285C259.091 216.818 261.62 214.936 264.377 213.493C267.059 211.987 270.015 211.032 273.073 210.686C276.13 210.339 279.226 210.607 282.18 211.475C282.762 211.694 283.291 212.033 283.735 212.469C284.178 212.905 284.526 213.428 284.756 214.006C284.981 214.695 283.976 216.044 283.203 216.763C281.597 218.219 279.881 219.549 278.072 220.743C272.526 224.391 266.918 228.745 259.918 227.9C254.067 227.16 251.523 229.1 249.474 234.302C247.672 238.815 243.971 242.44 241.908 246.93C235.773 260.246 225.538 271.241 212.7 278.305C197.243 286.659 180.275 288.021 163.056 286.676C159.92 286.319 156.808 285.771 153.739 285.035C151.424 284.586 150.009 284.708 149.133 287.694C147.914 290.863 146.123 293.781 143.85 296.301C138.282 302.74 129.65 302.887 122.422 305.894C120.21 306.824 119.52 305.114 120.467 302.979ZM118.489 248.085C114.44 246.776 110.202 245.998 105.257 244.81C109.528 253.581 121.672 258.402 130.041 255.183C130.567 254.857 131.03 254.438 131.407 253.947C130.963 253.493 130.461 253.099 129.914 252.776C126.031 251.197 122.317 249.397 118.396 248.139L118.489 248.085ZM108.113 224.581C111.509 235.396 118.812 241.052 127.928 246.034C124.341 235.875 117.357 229.911 108.021 224.635L108.113 224.581ZM108.484 149.95C107.919 149.212 107.106 148.703 106.196 148.518C105.876 148.479 105.121 149.659 104.822 150.427C102.507 157.568 103.966 164.515 106.33 171.311C107.495 174.657 109.092 177.853 110.883 182.028C116.024 170.13 114.993 159.81 108.401 150.022L108.484 149.95ZM121.886 117.407C115.922 110.679 108.241 107.498 99.0043 106.382C99.9224 108.501 101.257 110.413 102.929 112.005C104.602 113.596 106.576 114.835 108.736 115.647C112.534 117.249 116.542 118.359 120.471 119.588C121.249 119.706 122.04 119.701 122.815 119.574C122.567 118.805 122.192 118.082 121.705 117.437L121.886 117.407ZM129.783 115.129C131.224 109.994 130.702 104.504 128.319 99.7268C127.26 101.998 126.469 104.386 125.964 106.842C125.897 109.646 126.16 112.45 126.75 115.194C127.041 116.495 127.424 117.774 127.895 119.022C128.59 117.794 129.162 116.5 129.602 115.159L129.783 115.129ZM63.8758 107.042C62.3138 109.896 61.0754 112.915 60.1837 116.045C59.8461 117.133 60.5266 118.526 60.7381 119.793L64.0985 118.151C70.1176 112.964 76.9975 108.024 80.9939 100.235C81.5061 99.3992 81.8822 98.4871 82.1081 97.5327C82.162 97.1543 80.7758 96.1686 80.6272 96.2544C74.9527 100.151 67.4414 100.866 63.695 107.072L63.8758 107.042ZM73.2578 83.3187C66.9071 80.511 60.092 80.5016 53.2864 80.8091C52.5225 80.9656 51.7896 81.2463 51.1166 81.6401C51.3392 82.5114 51.7012 83.3412 52.1885 84.0972C55.8719 88.436 61.1131 91.1496 66.7761 91.65C70.6732 91.8806 74.7034 91.6127 78.6405 91.8697C82.5776 92.1268 81.7319 90.705 80.5712 88.0512C78.2146 86.2681 75.707 84.6946 73.077 83.3486L73.2578 83.3187ZM110.189 70.0832C106.629 66.9199 102.884 63.9712 98.9744 61.2528C95.2416 59.0838 91.3618 57.1793 87.3636 55.5533C86.587 55.3411 85.785 55.2366 84.9803 55.2425L85.3417 57.7129C89.0342 62.7377 94.1024 66.5845 99.9317 68.7867C102.96 69.7424 105.887 70.7809 108.886 71.7287C109.35 71.8039 109.823 71.8147 110.291 71.7607C110.267 71.2042 110.379 70.3701 110.045 70.0917L110.189 70.0832ZM118.167 73.0926C120.243 71.037 121.894 68.5919 123.026 65.8967C124.941 59.6065 122.562 53.5133 121.043 47.4942C120.148 45.2576 118.566 45.4765 117.797 47.0615C116.023 50.0126 114.85 53.2863 114.345 56.6946C114.448 61.8046 114.908 66.9017 115.723 71.9484C115.736 73.9006 116.857 74.4691 118.023 73.1011L118.167 73.0926ZM133.163 92.118C133.302 92.3599 133.572 92.5267 133.786 92.7256C133.721 92.614 133.795 92.398 133.755 92.3715C133.563 92.2733 133.366 92.1886 133.163 92.118ZM151.927 106.09C155.743 101.705 158.355 96.4019 159.508 90.6994C159.692 89.8927 159.806 89.0716 159.849 88.2451C159.919 86.8652 159.875 85.5017 159.934 84.1031L154.663 85.1374C152.907 88.0638 151.472 91.1712 150.381 94.4061C149.831 97.9988 149.66 101.64 149.868 105.27C149.932 105.846 150.09 106.409 150.335 106.935C150.916 106.761 151.457 106.474 151.927 106.09ZM191.704 153.97C192.504 153.441 193.269 152.859 193.992 152.228C193.086 151.56 192.186 150.343 191.281 150.32C187.058 150.075 182.822 150.252 178.635 150.849C175.045 151.922 171.565 153.333 168.241 155.064L168.687 156.221C176.491 157.172 184.314 158.113 191.683 153.933L191.704 153.97ZM169.119 145.776C171.736 138.071 172.279 129.81 170.692 121.823C170.216 120.754 169.63 119.737 168.942 118.79C167.185 121.893 165.589 125.083 164.159 128.349C162.043 134.035 163.345 139.807 164.325 145.493C164.69 147.539 165.291 149.524 165.788 151.544C167.078 149.731 168.193 147.8 169.119 145.776ZM106.289 184.407C98.6756 179.635 89.808 177.262 80.8375 177.595C78.7677 177.699 76.7339 178.079 74.6729 178.327C84.1156 183.144 93.1817 188.725 104.085 188.954C104.415 189 104.75 188.983 105.073 188.905C106.687 188.27 108.27 187.58 109.863 186.908C108.704 185.986 107.497 185.126 106.246 184.333L106.289 184.407ZM161.636 256.638C163.657 254.484 165.226 251.946 166.25 249.174C167.273 246.401 167.731 243.45 167.595 240.496C167.599 240.246 166.199 239.665 165.732 239.885C164.064 240.608 162.614 241.752 161.521 243.204C160.428 244.657 159.731 246.369 159.497 248.173C159.285 251.104 159.271 254.045 159.455 256.978C160.466 256.842 161.299 256.956 161.689 256.731L161.636 256.638ZM196.369 201.509C191.831 202.913 187.38 204.64 182.894 206.262C182.165 206.564 181.457 206.914 180.776 207.312C181.223 208.12 181.821 208.836 182.538 209.42C184.751 210.546 187.219 211.073 189.698 210.948C192.176 210.823 194.577 210.05 196.662 208.707C202.041 205.8 207.248 202.595 212.597 199.507C206.798 197.398 201.613 199.87 196.369 201.509ZM198.385 187.545L197.79 188.831C201.656 192.652 206.033 195.259 211.692 194.895L212.215 193.699L198.385 187.545ZM163.78 184.008C158.176 182.407 153.087 184.229 147.45 186.689L145.6 189.147C146.684 189.438 147.872 190.166 148.858 189.944C153.948 188.767 158.997 187.39 164.046 186.013C164.485 185.795 164.873 185.487 165.183 185.108C164.718 184.732 164.308 184.15 163.78 184.008ZM163.641 191.53C155.949 197.336 149.982 204.973 150.507 216.304C157.043 209.181 164.052 203.522 167.633 195.055C168.217 193.206 168.629 191.308 168.864 189.383C167.031 189.855 165.262 190.552 163.598 191.456L163.641 191.53ZM205.201 154.016C204.48 162.718 208.203 169.251 217.674 176.433C215.567 167.961 211.247 160.199 205.159 153.942L205.201 154.016ZM262.745 193.424C264.413 188.592 265.725 183.617 267.107 178.677C267.171 177.881 267.109 177.079 266.925 176.302L265.033 176.799C259.638 180.88 256.971 185.868 257.908 192.422C258.264 194.97 258.783 197.498 259.235 200.04C260.598 197.943 261.773 195.729 262.745 193.424ZM240.45 176.853C239.932 176.373 239.385 175.927 238.811 175.516C238.502 176.086 238.28 176.699 238.153 177.335C238.013 183.741 239.573 189.488 245.007 193.495C247.55 195.327 250.233 196.928 253.536 199.089C251.159 190.646 246.65 182.955 240.444 176.757L240.45 176.853ZM257.349 225.166C263.655 225.966 268.856 223.137 273.793 219.765C276.077 218.446 278.362 217.127 280.646 215.808C281.021 215.53 281.357 215.203 281.644 214.835C281.166 214.54 280.655 214.302 280.121 214.127C275.583 213.053 270.808 213.813 266.832 216.243C263.266 218.302 259.891 220.648 256.462 222.9C255.968 223.335 255.529 223.83 255.157 224.373C255.855 224.692 256.589 224.926 257.343 225.07L257.349 225.166ZM151.205 253.283C149.332 248.237 147.478 243.181 145.519 238.16C145.054 237.366 144.465 236.651 143.776 236.041C143.178 236.938 142.729 237.926 142.445 238.967C141.843 245.516 145.299 250.045 149.714 254.045L151.205 253.283ZM124.147 272.725C123.694 273.172 123.358 273.724 123.168 274.332C125.069 276.038 126.851 278.481 129.111 279.136C133.648 280.234 138.249 281.041 142.887 281.552C137.827 276.089 130.823 274.724 124.11 272.746L124.147 272.725ZM143.707 281.599L143.305 281.633L143.381 281.763C143.381 281.763 143.596 281.663 143.67 281.621L143.707 281.599ZM145.568 287.396C138.531 291.806 129.454 292.383 125.073 300.792C135.66 300.087 143.402 295.096 145.531 287.417L145.568 287.396Z" fill="black" fill-opacity="0.08"/>
</g>
<defs>
<clipPath id="clip0_1_324">
<rect width="195" height="262" fill="white" transform="matrix(-0.866025 0.5 0.5 0.866025 169.437 0.800781)"/>
</clipPath>
</defs>
</svg>
