<svg width="67" height="41" viewBox="0 0 67 41" fill="none" xmlns="http://www.w3.org/2000/svg">
<path d="M60.7298 1.64808C55.9782 1.64808 48.9791 4.60181 41.5305 7.87661C40.5032 7.55555 39.4116 7.17028 38.3842 6.78501C27.0829 2.67547 15.3964 -1.5625 1.59093 1.58387L1.52672 1.64808L0.370911 4.60182L0.691969 4.40918C0.691969 4.40918 3.51728 2.80389 9.55317 2.61126C15.1396 2.48283 24.7071 3.51022 38.641 9.16084C35.0452 10.7661 31.4493 12.3714 27.9819 13.6556C27.4682 13.3988 27.0187 13.142 26.505 12.8209C21.3681 9.99559 16.8733 7.55555 13.0206 7.55555C10.2595 7.55555 8.01209 9.80295 8.01209 12.4998C8.01209 15.2609 10.2595 17.5083 13.0206 17.5083C17.387 17.5083 22.5881 16.0315 27.9819 13.9767C30.9356 15.582 34.0178 17.1873 37.3568 18.5357C36.9715 18.7926 36.5862 18.9852 36.201 19.1778C34.2746 20.3337 32.2841 21.4895 30.2935 22.4526C26.7619 20.5263 23.4871 18.921 20.6618 18.921C18.8639 18.921 17.387 20.3979 17.387 22.1316C17.387 23.9295 18.8639 25.4064 20.6618 25.4064C23.9366 25.4064 27.1471 24.2506 30.2935 22.7095C30.8072 22.9663 31.7704 23.5442 31.7704 23.5442C33.5683 24.5716 35.4304 25.5348 37.2926 26.4338C36.3294 27.0117 35.3662 27.6538 34.4673 28.3601C33.4399 29.0022 32.4767 29.7085 31.5135 30.2865C29.1377 29.3233 26.8261 28.7454 25.5419 28.7454C24.386 28.7454 23.4229 29.7085 23.4229 30.8644C23.4229 32.0202 24.386 32.9833 25.5419 32.9833C27.3398 32.9833 29.3946 31.956 31.5777 30.5433C32.5409 30.9928 33.5683 31.4423 34.5957 32.0202C36.9073 33.3044 40.8242 36.0013 40.8242 39.5329V39.6614L42.879 40.0466L42.9432 39.9182C42.9432 39.854 43.2001 38.2487 42.1085 36.1939C41.0811 34.2676 38.7695 31.5707 33.183 29.5159C33.6325 29.1949 34.1462 28.8738 34.5957 28.5527C35.5589 27.8464 36.5863 27.2043 37.5494 26.5622C40.1179 27.718 42.6864 28.5527 45.0622 28.5527C46.5391 28.5527 47.6949 27.3327 47.6949 25.9201C47.6949 24.5074 46.5391 23.2874 45.0622 23.2874C42.7506 23.2874 40.1179 24.6358 37.5494 26.2411C35.6873 25.4064 33.7609 24.3148 31.8988 23.2874C31.8988 23.2874 30.9998 22.8379 30.5504 22.5811C32.5409 21.6179 34.4673 20.5263 36.3294 19.4347C36.7789 19.1778 37.2284 18.921 37.6136 18.6642C41.7874 20.3337 46.2822 21.4895 51.1623 21.4895C53.4097 21.4895 55.2076 19.6915 55.2076 17.4441C55.2076 15.2609 53.4097 13.463 51.1623 13.463C46.6675 13.463 42.0442 15.8388 37.6136 18.4073C34.3388 17.0589 31.1925 15.4536 28.303 13.8483C32.0914 12.3714 36.0083 10.6377 39.861 8.90399C40.3747 8.64715 40.9526 8.45451 41.5305 8.19766C48.0801 10.5093 54.3729 12.4998 60.7298 12.4998C64.7109 12.4998 66.8941 10.8303 66.8941 7.81239C66.8941 4.40918 64.133 1.64808 60.7298 1.64808ZM13.0206 17.2515C10.3879 17.2515 8.26894 15.1325 8.26894 12.4998C8.26894 9.93138 10.3879 7.81239 13.0206 7.81239C16.8091 7.81239 21.2397 10.2524 26.3766 13.0777C26.8261 13.3346 27.2114 13.5272 27.6608 13.7841C22.3955 15.8388 17.3228 17.2515 13.0206 17.2515ZM20.6618 25.1495C18.9923 25.1495 17.6438 23.8011 17.6438 22.1316C17.6438 20.5263 18.9923 19.1778 20.6618 19.1778C23.3587 19.1778 26.5692 20.7189 30.0367 22.5811C26.9545 24.0579 23.8081 25.1495 20.6618 25.1495ZM25.5419 32.7265C24.5145 32.7265 23.6797 31.8917 23.6797 30.8644C23.6797 29.837 24.5145 29.0022 25.5419 29.0022C26.7619 29.0022 28.9451 29.5159 31.2567 30.4791C29.1377 31.7633 27.2114 32.7265 25.5419 32.7265ZM41.8516 36.2581C42.7506 37.9918 42.7506 39.3403 42.6864 39.7898L41.0811 39.4687C41.0169 35.4876 36.2652 32.2128 31.8346 30.4149C32.2199 30.158 32.5409 29.9012 32.9262 29.7085C38.5126 31.6991 40.8884 34.396 41.8516 36.2581ZM45.0622 23.5442C46.3464 23.5442 47.438 24.6358 47.438 25.9201C47.438 27.2043 46.3464 28.2959 45.0622 28.2959C42.7506 28.2959 40.3105 27.4611 37.8705 26.3696C40.3747 24.8285 42.8148 23.5442 45.0622 23.5442ZM51.1623 13.7199C53.2813 13.7199 54.9508 15.3894 54.9508 17.4441C54.9508 19.4989 53.2813 21.2326 51.1623 21.2326C46.4106 21.2326 42.0442 20.0768 37.9347 18.5357C42.4295 15.9031 46.7317 13.7199 51.1623 13.7199ZM38.9621 9.03242C25.7345 3.63864 16.4238 2.35441 10.709 2.35441C10.2595 2.35441 9.87423 2.35441 9.55317 2.35441C4.48045 2.54705 1.71935 3.63864 0.884603 4.02391L1.71935 1.84072C15.3964 -1.30565 27.0829 2.93231 38.32 7.04185C39.2831 7.36291 40.2463 7.68397 41.1453 8.06924C40.3747 8.3903 38.9621 9.03242 38.9621 9.03242ZM60.7298 12.243C54.5013 12.243 48.2728 10.3166 41.8516 8.00503C49.2359 4.79445 56.0424 1.90493 60.7298 1.90493C64.0046 1.90493 66.6373 4.5376 66.6373 7.81239C66.6373 11.4725 63.4267 12.243 60.7298 12.243Z" fill="#333333"/>
</svg>
