<svg width="23" height="22" viewBox="0 0 23 22" fill="none" xmlns="http://www.w3.org/2000/svg">
<path d="M7.18 0.439941C3.73959 0.439941 0.940002 3.23953 0.940002 6.67994V15.3199C0.940002 18.7604 3.73959 21.5599 7.18 21.5599H15.82C19.2604 21.5599 22.06 18.7604 22.06 15.3199V6.67994C22.06 3.23953 19.2604 0.439941 15.82 0.439941H7.18ZM7.18 1.39994H15.82C18.7415 1.39994 21.1 3.75843 21.1 6.67994V15.3199C21.1 18.2415 18.7415 20.5999 15.82 20.5999H7.18C4.25849 20.5999 1.9 18.2415 1.9 15.3199V6.67994C1.9 3.75843 4.25849 1.39994 7.18 1.39994ZM17.26 4.27994C17.0054 4.27994 16.7612 4.38108 16.5812 4.56112C16.4011 4.74115 16.3 4.98533 16.3 5.23994C16.3 5.49455 16.4011 5.73873 16.5812 5.91876C16.7612 6.0988 17.0054 6.19994 17.26 6.19994C17.5146 6.19994 17.7588 6.0988 17.9388 5.91876C18.1189 5.73873 18.22 5.49455 18.22 5.23994C18.22 4.98533 18.1189 4.74115 17.9388 4.56112C17.7588 4.38108 17.5146 4.27994 17.26 4.27994ZM11.5 5.71994C8.58962 5.71994 6.22 8.08956 6.22 10.9999C6.22 13.9103 8.58962 16.2799 11.5 16.2799C14.4104 16.2799 16.78 13.9103 16.78 10.9999C16.78 8.08956 14.4104 5.71994 11.5 5.71994ZM11.5 6.67994C13.8916 6.67994 15.82 8.60839 15.82 10.9999C15.82 13.3915 13.8916 15.3199 11.5 15.3199C9.10845 15.3199 7.18 13.3915 7.18 10.9999C7.18 8.60839 9.10845 6.67994 11.5 6.67994Z" fill="#333333"/>
</svg>
